<svg width="175" height="154" viewBox="0 0 175 154" fill="none" xmlns="http://www.w3.org/2000/svg">
<g id="Logo">
<g id="DORM">
<path d="M33 110.022V68.4622H43.7128C46.5255 68.4622 48.9234 69.259 50.9066 70.8527C52.9027 72.4464 54.4322 74.7792 55.495 77.8514C56.5579 80.9043 57.0893 84.6292 57.0893 89.0262V89.0838C57.0893 93.4807 56.5579 97.2441 55.495 100.374C54.4451 103.504 52.9221 105.894 50.926 107.545C48.9299 109.197 46.5255 110.022 43.7128 110.022H33ZM38.8716 102.822H43.0129C44.7627 102.822 46.2404 102.303 47.4458 101.267C48.6512 100.23 49.5586 98.6937 50.1678 96.6585C50.7899 94.6232 51.101 92.1079 51.101 89.1126V89.055C51.101 86.1557 50.7834 83.7076 50.1483 81.7107C49.5262 79.7138 48.6124 78.2066 47.4069 77.1889C46.2015 76.1521 44.7368 75.6337 43.0129 75.6337H38.8716V102.822Z" fill="white"/>
<path d="M73.5377 110.742C70.7639 110.742 68.3595 109.869 66.3245 108.121C64.3025 106.374 62.7406 103.897 61.6388 100.691C60.5501 97.4649 60.0057 93.6536 60.0057 89.2566V89.199C60.0057 84.7828 60.5565 80.9715 61.6583 77.765C62.76 74.5584 64.3219 72.0911 66.3439 70.3631C68.3789 68.6158 70.7768 67.7422 73.5377 67.7422C76.3115 67.7422 78.7094 68.6158 80.7314 70.3631C82.7534 72.1104 84.3153 74.5872 85.4171 77.7938C86.5188 80.9811 87.0697 84.7828 87.0697 89.199V89.2566C87.0697 93.6536 86.5188 97.4649 85.4171 100.691C84.3153 103.897 82.7534 106.374 80.7314 108.121C78.7224 109.869 76.3244 110.742 73.5377 110.742ZM73.5377 103.369C75.0931 103.369 76.4346 102.793 77.5623 101.641C78.69 100.47 79.5584 98.8281 80.1676 96.7161C80.7768 94.604 81.0814 92.1175 81.0814 89.2566V89.199C81.0814 86.2997 80.7703 83.8036 80.1481 81.7107C79.5389 79.5986 78.664 77.9762 77.5234 76.8433C76.3957 75.6913 75.0672 75.1153 73.5377 75.1153C72.0082 75.1153 70.6731 75.6817 69.5325 76.8145C68.4049 77.9474 67.5299 79.5698 66.9078 81.6819C66.2986 83.7748 65.994 86.2805 65.994 89.199V89.2566C65.994 92.1367 66.2986 94.6328 66.9078 96.7449C67.5299 98.8569 68.4049 100.489 69.5325 101.641C70.6602 102.793 71.9952 103.369 73.5377 103.369Z" fill="white"/>
<path d="M90.861 110.022V68.4622H102.449C104.549 68.4622 106.344 68.9902 107.834 70.0463C109.338 71.1023 110.485 72.6288 111.276 74.6256C112.079 76.6033 112.481 78.9842 112.481 81.7683V81.8259C112.481 84.5524 112.021 86.9813 111.101 89.1126C110.193 91.2439 108.962 92.7607 107.407 93.6632L113.317 110.022H106.668L101.438 94.9592C101.399 94.9592 101.353 94.9592 101.302 94.9592C101.25 94.9592 101.198 94.9592 101.146 94.9592H96.7326V110.022H90.861ZM96.7326 88.3638H101.807C103.272 88.3638 104.412 87.7877 105.229 86.6357C106.059 85.4644 106.473 83.8612 106.473 81.8259V81.7683C106.473 79.7714 106.046 78.1874 105.19 77.0161C104.335 75.8449 103.181 75.2593 101.729 75.2593H96.7326V88.3638Z" fill="white"/>
<path d="M116.37 110.022V68.4622H123.155L131.126 98.3289H131.243L139.215 68.4622H146V110.022H140.77V81.9123H138.048L143.92 69.6143L133.032 110.022H129.338L118.45 69.6143L124.322 81.9123H121.6V110.022H116.37Z" fill="white"/>
</g>
<g id="DUO">
<path d="M33 153.022V111.462H47.7159C51.5796 111.462 54.8736 112.259 57.5977 113.853C60.3397 115.446 62.4407 117.779 63.9007 120.851C65.3607 123.904 66.0908 127.629 66.0908 132.026V132.084C66.0908 136.481 65.3607 140.244 63.9007 143.374C62.4585 146.504 60.3664 148.894 57.6244 150.545C54.8825 152.197 51.5796 153.022 47.7159 153.022H33ZM41.0657 145.822H46.7544C49.1581 145.822 51.1879 145.303 52.8438 144.267C54.4996 143.23 55.746 141.694 56.5828 139.658C57.4375 137.623 57.8648 135.108 57.8648 132.113V132.055C57.8648 129.156 57.4286 126.708 56.5561 124.711C55.7015 122.714 54.4462 121.207 52.7904 120.189C51.1345 119.152 49.1225 118.634 46.7544 118.634H41.0657V145.822Z" fill="white"/>
<path d="M127.411 153.742C123.601 153.742 120.298 152.869 117.503 151.121C114.725 149.374 112.58 146.897 111.066 143.691C109.571 140.465 108.823 136.654 108.823 132.257V132.199C108.823 127.783 109.58 123.971 111.093 120.765C112.607 117.558 114.752 115.091 117.53 113.363C120.325 111.616 123.619 110.742 127.411 110.742C131.222 110.742 134.516 111.616 137.293 113.363C140.071 115.11 142.216 117.587 143.73 120.794C145.243 123.981 146 127.783 146 132.199V132.257C146 136.654 145.243 140.465 143.73 143.691C142.216 146.897 140.071 149.374 137.293 151.121C134.534 152.869 131.24 153.742 127.411 153.742ZM127.411 146.369C129.548 146.369 131.391 145.793 132.94 144.641C134.489 143.47 135.682 141.828 136.519 139.716C137.356 137.604 137.774 135.117 137.774 132.257V132.199C137.774 129.3 137.347 126.804 136.492 124.711C135.655 122.599 134.453 120.976 132.887 119.843C131.338 118.691 129.512 118.115 127.411 118.115C125.31 118.115 123.477 118.682 121.91 119.815C120.361 120.947 119.159 122.57 118.304 124.682C117.467 126.775 117.049 129.28 117.049 132.199V132.257C117.049 135.137 117.467 137.633 118.304 139.745C119.159 141.857 120.361 143.489 121.91 144.641C123.459 145.793 125.293 146.369 127.411 146.369Z" fill="white"/>
</g>
<path id="DUO_2" d="M87.1314 110.742C90.4254 110.742 93.2831 111.385 95.7046 112.672C98.1083 113.958 99.9778 115.754 101.313 118.058C102.631 120.381 103.29 123.079 103.29 126.151V153.022H95.2238V126.928C95.2238 125.143 94.9123 123.587 94.2891 122.263C93.6481 120.957 92.7311 119.939 91.5382 119.21C90.3274 118.48 88.8585 118.115 87.1314 118.115C85.4043 118.115 83.9443 118.48 82.7514 119.21C81.5406 119.939 80.6237 120.957 80.0005 122.263C79.3773 123.587 79.0657 125.143 79.0657 126.928V153.022H71V126.151C71 123.079 71.6588 120.381 72.9764 118.058C74.2762 115.754 76.1368 113.958 78.5583 112.672C80.962 111.385 83.8197 110.742 87.1314 110.742Z" fill="white"/>
<circle id="Ellipse 1" cx="90.5" cy="138.242" r="2.5" fill="white"/>
<line id="Line 1" x1="1.93774" y1="87.9395" x2="86.9377" y2="2.68316" stroke="#8B7EFF" stroke-width="3"/>
<line id="Line 2" x1="88.0607" y1="2.68153" x2="173.408" y2="88.0293" stroke="#8B7EFF" stroke-width="3"/>
<rect id="Rectangle 1" x="85.834" y="1.66602" width="2.3561" height="2.29257" transform="rotate(-45 85.834 1.66602)" fill="#8B7EFF"/>
</g>
</svg>
